<svg width="120" height="48" viewBox="0 0 120 48" fill="none" xmlns="http://www.w3.org/2000/svg">
<mask id="path-1-inside-1_49_476" fill="white">
<path fill-rule="evenodd" clip-rule="evenodd" d="M67.3958 23.6529C67.3524 23.9311 67.2466 24.1959 67.0863 24.4275C66.926 24.659 66.7154 24.8512 66.4703 24.9898C65.9766 25.3086 65.5447 25.468 65.1077 25.6274C64.177 25.9488 63.1974 26.2702 62.1613 26.643C61.0687 27.0157 60.0891 27.3885 59.215 27.6585C58.1249 28.0313 57.0888 28.3526 56.1041 28.7254C55.3633 29.0425 54.6674 29.4556 54.0345 29.9544C53.4458 30.4877 52.9321 31.0983 52.5073 31.7695C52.0703 32.515 51.7952 33.4766 51.7952 34.5975C51.7952 36.842 52.3402 38.5491 53.4329 39.6161C54.523 40.7396 56.5438 41.2718 59.5389 41.2718C62.5932 41.2718 64.6654 40.6856 65.7607 39.5107C66.8482 38.3357 67.3932 36.6826 67.3932 34.5487V23.6529H67.3958ZM59.5415 0C64.8891 0 68.815 1.01553 71.3217 3.09802C73.831 5.12908 75.0856 7.74119 75.0856 10.8366V37.2148C75.0856 38.2817 74.8696 39.4567 74.4891 40.737C74.1035 42.0225 73.3425 43.1949 72.1418 44.2592C70.9977 45.3313 69.4166 46.2389 67.3984 46.933C65.3802 47.6272 62.7629 48 59.5441 48C56.3304 48 53.708 47.6272 51.6923 46.933C49.6767 46.2389 48.093 45.3313 46.9489 44.2592C45.8846 43.3001 45.0783 42.089 44.6042 40.737C44.2185 39.4592 44 38.2843 44 37.2174V33.001C44 30.7565 44.599 28.674 45.7997 26.8563C47.0003 24.9898 48.6894 23.7095 50.8722 22.9073C51.9623 22.5345 53.2169 22.1618 54.6335 21.681C56.0527 21.1976 57.3588 20.7169 58.6699 20.2927C59.9811 19.8633 61.1252 19.434 62.1048 19.0586C62.6959 18.8221 63.2963 18.6094 63.9044 18.421L64.8866 17.9402C65.2722 17.7268 65.6501 17.4055 66.0332 16.9787C66.4137 16.5545 66.7402 16.0737 67.0153 15.5389C67.306 14.9599 67.4557 14.3203 67.4524 13.6724V11.9627C67.4564 11.3361 67.3249 10.716 67.0667 10.145C66.8508 9.5023 66.4137 8.91612 65.8147 8.38393C65.2156 7.84917 64.3955 7.42239 63.416 7.09845C62.4338 6.78222 61.1278 6.62025 59.6521 6.62025C56.5977 6.62025 54.5795 7.21157 53.4894 8.43535C52.5639 9.50488 52.0189 10.8392 51.9109 12.3329C51.9109 12.6543 51.6383 12.8677 51.3093 12.8677L44.6582 12.9757C44.5002 12.9764 44.3483 12.9146 44.2356 12.8039C44.123 12.6931 44.0586 12.5423 44.0566 12.3844V10.8418C44.0566 9.3429 44.3317 7.95458 44.9307 6.62025C45.5323 5.28334 46.4604 4.16497 47.7125 3.20086C48.9671 2.24189 50.6048 1.44231 52.5665 0.907552C54.4767 0.26481 56.8214 0 59.5466 0H59.5415Z"/>
</mask>
<path fill-rule="evenodd" clip-rule="evenodd" d="M67.3958 23.6529C67.3524 23.9311 67.2466 24.1959 67.0863 24.4275C66.926 24.659 66.7154 24.8512 66.4703 24.9898C65.9766 25.3086 65.5447 25.468 65.1077 25.6274C64.177 25.9488 63.1974 26.2702 62.1613 26.643C61.0687 27.0157 60.0891 27.3885 59.215 27.6585C58.1249 28.0313 57.0888 28.3526 56.1041 28.7254C55.3633 29.0425 54.6674 29.4556 54.0345 29.9544C53.4458 30.4877 52.9321 31.0983 52.5073 31.7695C52.0703 32.515 51.7952 33.4766 51.7952 34.5975C51.7952 36.842 52.3402 38.5491 53.4329 39.6161C54.523 40.7396 56.5438 41.2718 59.5389 41.2718C62.5932 41.2718 64.6654 40.6856 65.7607 39.5107C66.8482 38.3357 67.3932 36.6826 67.3932 34.5487V23.6529H67.3958ZM59.5415 0C64.8891 0 68.815 1.01553 71.3217 3.09802C73.831 5.12908 75.0856 7.74119 75.0856 10.8366V37.2148C75.0856 38.2817 74.8696 39.4567 74.4891 40.737C74.1035 42.0225 73.3425 43.1949 72.1418 44.2592C70.9977 45.3313 69.4166 46.2389 67.3984 46.933C65.3802 47.6272 62.7629 48 59.5441 48C56.3304 48 53.708 47.6272 51.6923 46.933C49.6767 46.2389 48.093 45.3313 46.9489 44.2592C45.8846 43.3001 45.0783 42.089 44.6042 40.737C44.2185 39.4592 44 38.2843 44 37.2174V33.001C44 30.7565 44.599 28.674 45.7997 26.8563C47.0003 24.9898 48.6894 23.7095 50.8722 22.9073C51.9623 22.5345 53.2169 22.1618 54.6335 21.681C56.0527 21.1976 57.3588 20.7169 58.6699 20.2927C59.9811 19.8633 61.1252 19.434 62.1048 19.0586C62.6959 18.8221 63.2963 18.6094 63.9044 18.421L64.8866 17.9402C65.2722 17.7268 65.6501 17.4055 66.0332 16.9787C66.4137 16.5545 66.7402 16.0737 67.0153 15.5389C67.306 14.9599 67.4557 14.3203 67.4524 13.6724V11.9627C67.4564 11.3361 67.3249 10.716 67.0667 10.145C66.8508 9.5023 66.4137 8.91612 65.8147 8.38393C65.2156 7.84917 64.3955 7.42239 63.416 7.09845C62.4338 6.78222 61.1278 6.62025 59.6521 6.62025C56.5977 6.62025 54.5795 7.21157 53.4894 8.43535C52.5639 9.50488 52.0189 10.8392 51.9109 12.3329C51.9109 12.6543 51.6383 12.8677 51.3093 12.8677L44.6582 12.9757C44.5002 12.9764 44.3483 12.9146 44.2356 12.8039C44.123 12.6931 44.0586 12.5423 44.0566 12.3844V10.8418C44.0566 9.3429 44.3317 7.95458 44.9307 6.62025C45.5323 5.28334 46.4604 4.16497 47.7125 3.20086C48.9671 2.24189 50.6048 1.44231 52.5665 0.907552C54.4767 0.26481 56.8214 0 59.5466 0H59.5415Z" fill="#0A3871"/>
<path d="M67.3958 23.6529L68.3839 23.8072L68.5641 22.6529H67.3958V23.6529ZM66.4703 24.9898L65.9781 24.1193L65.9525 24.1338L65.9277 24.1498L66.4703 24.9898ZM65.1077 25.6274L65.434 26.5727L65.4422 26.5698L65.4503 26.5669L65.1077 25.6274ZM62.1613 26.643L62.4842 27.5894L62.4921 27.5867L62.4999 27.5839L62.1613 26.643ZM59.215 27.6585L58.9199 26.703L58.9056 26.7074L58.8914 26.7123L59.215 27.6585ZM56.1041 28.7254L55.7501 27.7902L55.7302 27.7977L55.7107 27.8061L56.1041 28.7254ZM54.0345 29.9544L53.4156 29.1689L53.3886 29.1902L53.3631 29.2133L54.0345 29.9544ZM52.5073 31.7695L51.6623 31.2347L51.6532 31.2491L51.6446 31.2637L52.5073 31.7695ZM53.4329 39.6161L54.1506 38.9197L54.1412 38.91L54.1315 38.9006L53.4329 39.6161ZM65.7607 39.5107L66.4922 40.1925L66.4946 40.1899L65.7607 39.5107ZM67.3932 23.6529V22.6529H66.3932V23.6529H67.3932ZM71.3217 3.09802L70.6826 3.86727L70.6925 3.8753L71.3217 3.09802ZM74.4891 40.737L75.447 41.0244L75.4477 41.0219L74.4891 40.737ZM72.1418 44.2592L71.4785 43.5109L71.4681 43.5201L71.458 43.5295L72.1418 44.2592ZM46.9489 44.2592L47.6327 43.5295L47.6256 43.5229L47.6183 43.5164L46.9489 44.2592ZM44.6042 40.737L43.6468 41.0259L43.6532 41.0471L43.6605 41.068L44.6042 40.737ZM45.7997 26.8563L46.6341 27.4075L46.6407 27.3973L45.7997 26.8563ZM50.8722 22.9073L50.5486 21.9611L50.5379 21.9648L50.5273 21.9687L50.8722 22.9073ZM54.6335 21.681L54.9549 22.6279L54.9559 22.6276L54.6335 21.681ZM58.6699 20.2927L58.9778 21.2441L58.9811 21.243L58.6699 20.2927ZM62.1048 19.0586L62.4626 19.9924L62.4694 19.9898L62.4762 19.987L62.1048 19.0586ZM63.9044 18.421L64.2003 19.3762L64.2744 19.3533L64.3441 19.3192L63.9044 18.421ZM64.8866 17.9402L65.3262 18.8384L65.3488 18.8274L65.3707 18.8152L64.8866 17.9402ZM66.0332 16.9787L66.7774 17.6467L66.7776 17.6464L66.0332 16.9787ZM67.0153 15.5389L67.9046 15.9964L67.9091 15.9875L67.0153 15.5389ZM67.4524 13.6724L66.4524 13.6724L66.4524 13.6776L67.4524 13.6724ZM67.4524 11.9627L66.4524 11.9563V11.9627H67.4524ZM67.0667 10.145L66.1188 10.4635L66.1348 10.5112L66.1555 10.557L67.0667 10.145ZM65.8147 8.38393L65.1487 9.12993L65.1505 9.13152L65.8147 8.38393ZM63.416 7.09845L63.73 6.14899L63.7225 6.14657L63.416 7.09845ZM53.4894 8.43535L52.7427 7.77021L52.738 7.77556L52.7333 7.78098L53.4894 8.43535ZM51.9109 12.3329L50.9135 12.2608L50.9109 12.2968V12.3329H51.9109ZM51.3093 12.8677V11.8677H51.3011L51.293 11.8678L51.3093 12.8677ZM44.6582 12.9757L44.6625 13.9757L44.6744 13.9756L44.6582 12.9757ZM44.0566 12.3844L43.0565 12.3844L43.0566 12.3972L44.0566 12.3844ZM44.9307 6.62025L44.0188 6.20988L44.0184 6.21069L44.9307 6.62025ZM47.7125 3.20086L47.1052 2.40636L47.1024 2.40854L47.7125 3.20086ZM52.5665 0.907552L52.8295 1.87235L52.8577 1.86466L52.8854 1.85534L52.5665 0.907552ZM66.4078 23.4987C66.3876 23.6278 66.3385 23.7508 66.2641 23.8582L67.9085 24.9967C68.1546 24.6411 68.3171 24.2345 68.3839 23.8072L66.4078 23.4987ZM66.2641 23.8582C66.1897 23.9657 66.0919 24.055 65.9781 24.1193L66.9624 25.8603C67.3389 25.6475 67.6623 25.3522 67.9085 24.9967L66.2641 23.8582ZM65.9277 24.1498C65.5364 24.4025 65.1976 24.5302 64.765 24.688L65.4503 26.5669C65.8919 26.4059 66.4169 26.2147 67.0128 25.8299L65.9277 24.1498ZM64.7813 24.6822C63.8712 24.9964 62.8652 25.3269 61.8228 25.702L62.4999 27.5839C63.5297 27.2134 64.4827 26.9012 65.434 26.5727L64.7813 24.6822ZM61.8384 25.6965C60.6939 26.087 59.7808 26.4372 58.9199 26.703L59.5101 28.614C60.3975 28.3399 61.4434 27.9445 62.4842 27.5894L61.8384 25.6965ZM58.8914 26.7123C57.8397 27.072 56.7533 27.4104 55.7501 27.7902L56.4582 29.6607C57.4243 29.2949 58.4101 28.9906 59.5386 28.6047L58.8914 26.7123ZM55.7107 27.8061C54.8892 28.1576 54.1175 28.6158 53.4156 29.1689L54.6534 30.7398C55.2174 30.2954 55.8374 29.9273 56.4975 29.6448L55.7107 27.8061ZM53.3631 29.2133C52.7075 29.8072 52.1354 30.4872 51.6623 31.2347L53.3523 32.3042C53.7288 31.7093 54.1842 31.1681 54.7059 30.6954L53.3631 29.2133ZM51.6446 31.2637C51.1106 32.1747 50.7952 33.3132 50.7952 34.5975H52.7952C52.7952 33.6399 53.0299 32.8554 53.37 32.2752L51.6446 31.2637ZM50.7952 34.5975C50.7952 36.9764 51.37 38.9994 52.7342 40.3315L54.1315 38.9006C53.3104 38.0988 52.7952 36.7076 52.7952 34.5975H50.7952ZM52.7152 40.3124C54.1091 41.7491 56.5036 42.2718 59.5389 42.2718V40.2718C56.5839 40.2718 54.9368 39.73 54.1506 38.9197L52.7152 40.3124ZM59.5389 42.2718C62.6456 42.2718 65.0955 41.6909 66.4922 40.1925L65.0292 38.8288C64.2354 39.6803 62.5409 40.2718 59.5389 40.2718V42.2718ZM66.4946 40.1899C67.8032 38.7761 68.3932 36.8496 68.3932 34.5487H66.3932C66.3932 36.5156 65.8932 37.8953 65.0268 38.8314L66.4946 40.1899ZM68.3932 34.5487V23.6529H66.3932V34.5487H68.3932ZM67.3932 24.6529H67.3958V22.6529H67.3932V24.6529ZM59.5415 1C64.7998 1 68.4417 2.00546 70.6827 3.86721L71.9607 2.32883C69.1883 0.0256058 64.9784 -1 59.5415 -1V1ZM70.6925 3.8753C72.9745 5.72238 74.0856 8.05219 74.0856 10.8366H76.0856C76.0856 7.43019 74.6874 4.53578 71.9508 2.32074L70.6925 3.8753ZM74.0856 10.8366V37.2148H76.0856V10.8366H74.0856ZM74.0856 37.2148C74.0856 38.1525 73.8948 39.2264 73.5306 40.4521L75.4477 41.0219C75.8444 39.6869 76.0856 38.411 76.0856 37.2148H74.0856ZM73.5313 40.4497C73.2054 41.536 72.5575 42.5544 71.4785 43.5109L72.8052 45.0075C74.1275 43.8353 75.0016 42.509 75.4469 41.0244L73.5313 40.4497ZM71.458 43.5295C70.442 44.4817 68.9947 45.3265 67.0731 45.9874L67.7236 47.8787C69.8384 47.1513 71.5535 46.181 72.8256 44.9889L71.458 43.5295ZM67.0731 45.9874C65.1934 46.6339 62.6949 47 59.5441 47V49C62.831 49 65.5669 48.6205 67.7236 47.8787L67.0731 45.9874ZM59.5441 47C56.3982 47 53.8947 46.6339 52.018 45.9875L51.3667 47.8785C53.5212 48.6205 56.2625 49 59.5441 49V47ZM52.018 45.9875C50.0982 45.3264 48.6486 44.4815 47.6327 43.5295L46.2651 44.9889C47.5374 46.1812 49.2552 47.1513 51.3667 47.8785L52.018 45.9875ZM47.6183 43.5164C46.6785 42.6694 45.9665 41.5999 45.5478 40.406L43.6605 41.068C44.1901 42.578 45.0907 43.9308 46.2795 45.0021L47.6183 43.5164ZM45.5615 40.4481C45.1927 39.2261 45 38.1534 45 37.2174H43C43 38.4152 43.2443 39.6924 43.6468 41.0259L45.5615 40.4481ZM45 37.2174V33.001H43V37.2174H45ZM45 33.001C45 30.9409 45.5476 29.0523 46.6341 27.4075L44.9653 26.3052C43.6504 28.2958 43 30.5721 43 33.001H45ZM46.6407 27.3973C47.7108 25.7338 49.2151 24.5817 51.2171 23.846L50.5273 21.9687C48.1638 22.8373 46.2899 24.2458 44.9587 26.3154L46.6407 27.3973ZM51.1958 23.8535C51.7289 23.6712 52.3041 23.4883 52.9342 23.2874C53.5609 23.0876 54.2368 22.8717 54.9549 22.6279L54.3121 20.734C53.6137 20.9711 52.954 21.1819 52.3267 21.3819C51.7027 21.5808 51.1056 21.7707 50.5486 21.9611L51.1958 23.8535ZM54.9559 22.6276C56.4114 22.1319 57.6706 21.667 58.9778 21.2441L58.3621 19.3412C57.0469 19.7667 55.6941 20.2634 54.3111 20.7344L54.9559 22.6276ZM58.9811 21.243C60.3159 20.806 61.478 20.3697 62.4626 19.9924L61.7469 18.1248C60.7724 18.4982 59.6464 18.9207 58.3588 19.3423L58.9811 21.243ZM62.4762 19.987C63.0425 19.7605 63.6177 19.5567 64.2003 19.3762L63.6086 17.4658C62.9748 17.6621 62.3492 17.8837 61.7333 18.1302L62.4762 19.987ZM64.3441 19.3192L65.3262 18.8384L64.4469 17.0421L63.4648 17.5228L64.3441 19.3192ZM65.3707 18.8152C65.8835 18.5314 66.3463 18.1269 66.7774 17.6467L65.289 16.3107C64.9539 16.684 64.6609 16.9222 64.4024 17.0652L65.3707 18.8152ZM66.7776 17.6464C67.2196 17.1537 67.5935 16.601 67.9046 15.9964L66.1261 15.0815C65.8869 15.5464 65.6078 15.9553 65.2888 16.311L66.7776 17.6464ZM67.9091 15.9875C68.2704 15.2677 68.4565 14.4727 68.4524 13.6673L66.4524 13.6776C66.4549 14.168 66.3416 14.652 66.1216 15.0903L67.9091 15.9875ZM68.4524 13.6724V11.9627H66.4524V13.6724H68.4524ZM68.4524 11.9691C68.4573 11.1983 68.2955 10.4355 67.978 9.73313L66.1555 10.557C66.3542 10.9965 66.4555 11.4739 66.4524 11.9563L68.4524 11.9691ZM68.0147 9.82654C67.7271 8.97069 67.1645 8.24552 66.4788 7.63634L65.1505 9.13152C65.6629 9.58672 65.9745 10.0339 66.1188 10.4635L68.0147 9.82654ZM66.4806 7.63794C65.7467 6.98277 64.7901 6.49963 63.7299 6.14902L63.102 8.04787C64.0009 8.34514 64.6846 8.71557 65.1487 9.12992L66.4806 7.63794ZM63.7225 6.14657C62.6063 5.78718 61.1872 5.62025 59.6521 5.62025V7.62025C61.0683 7.62025 62.2614 7.77725 63.1095 8.05032L63.7225 6.14657ZM59.6521 5.62025C56.5397 5.62025 54.134 6.20834 52.7427 7.77021L54.2362 9.10049C55.0251 8.21481 56.6558 7.62025 59.6521 7.62025V5.62025ZM52.7333 7.78098C51.6601 9.02106 51.0363 10.5623 50.9135 12.2608L52.9083 12.405C53.0014 11.1162 53.4677 9.98869 54.2456 9.08973L52.7333 7.78098ZM50.9109 12.3329C50.9109 12.1891 50.9801 12.0494 51.0832 11.9611C51.1748 11.8827 51.2626 11.8677 51.3093 11.8677V13.8677C52.039 13.8677 52.9109 13.3469 52.9109 12.3329H50.9109ZM51.293 11.8678L44.6419 11.9758L44.6744 13.9756L51.3255 13.8676L51.293 11.8678ZM44.6538 11.9757C44.7595 11.9752 44.8612 12.0166 44.9366 12.0907L43.5346 13.517C43.8354 13.8127 44.2408 13.9775 44.6625 13.9757L44.6538 11.9757ZM44.9366 12.0907C45.012 12.1648 45.0551 12.2658 45.0565 12.3715L43.0566 12.3972C43.0621 12.8189 43.2339 13.2214 43.5346 13.517L44.9366 12.0907ZM45.0566 12.3844V10.8418H43.0566V12.3844H45.0566ZM45.0566 10.8418C45.0566 9.47166 45.3066 8.22447 45.843 7.02981L44.0184 6.21069C43.3567 7.68469 43.0566 9.21414 43.0566 10.8418H45.0566ZM45.8426 7.03061C46.3675 5.8641 47.1823 4.87119 48.3226 3.99318L47.1024 2.40854C45.7385 3.45875 44.6971 4.70258 44.0188 6.20988L45.8426 7.03061ZM48.3197 3.99535C49.4564 3.12658 50.9724 2.37859 52.8295 1.87235L52.3035 -0.0572409C50.2372 0.506036 48.4778 1.35719 47.1052 2.40636L48.3197 3.99535ZM52.8854 1.85534C54.6506 1.26139 56.8739 1 59.5466 1V-1C56.769 -1 54.3028 -0.731766 52.2476 -0.0402345L52.8854 1.85534ZM59.5466 -1H59.5415V1H59.5466V-1Z" fill="black" mask="url(#path-1-inside-1_49_476)"/>
<path d="M67.3958 23.6529L68.3839 23.8072L68.5641 22.6529H67.3958V23.6529ZM66.4703 24.9898L65.9781 24.1193L65.9525 24.1338L65.9277 24.1498L66.4703 24.9898ZM65.1077 25.6274L65.434 26.5727L65.4422 26.5698L65.4503 26.5669L65.1077 25.6274ZM62.1613 26.643L62.4842 27.5894L62.4921 27.5867L62.4999 27.5839L62.1613 26.643ZM59.215 27.6585L58.9199 26.703L58.9056 26.7074L58.8914 26.7123L59.215 27.6585ZM56.1041 28.7254L55.7501 27.7902L55.7302 27.7977L55.7107 27.8061L56.1041 28.7254ZM54.0345 29.9544L53.4156 29.1689L53.3886 29.1902L53.3631 29.2133L54.0345 29.9544ZM52.5073 31.7695L51.6623 31.2347L51.6532 31.2491L51.6446 31.2637L52.5073 31.7695ZM53.4329 39.6161L54.1506 38.9197L54.1412 38.91L54.1315 38.9006L53.4329 39.6161ZM65.7607 39.5107L66.4922 40.1925L66.4946 40.1899L65.7607 39.5107ZM67.3932 23.6529V22.6529H66.3932V23.6529H67.3932ZM71.3217 3.09802L70.6826 3.86727L70.6925 3.8753L71.3217 3.09802ZM74.4891 40.737L75.447 41.0244L75.4477 41.0219L74.4891 40.737ZM72.1418 44.2592L71.4785 43.5109L71.4681 43.5201L71.458 43.5295L72.1418 44.2592ZM46.9489 44.2592L47.6327 43.5295L47.6256 43.5229L47.6183 43.5164L46.9489 44.2592ZM44.6042 40.737L43.6468 41.0259L43.6532 41.0471L43.6605 41.068L44.6042 40.737ZM45.7997 26.8563L46.6341 27.4075L46.6407 27.3973L45.7997 26.8563ZM50.8722 22.9073L50.5486 21.9611L50.5379 21.9648L50.5273 21.9687L50.8722 22.9073ZM54.6335 21.681L54.9549 22.6279L54.9559 22.6276L54.6335 21.681ZM58.6699 20.2927L58.9778 21.2441L58.9811 21.243L58.6699 20.2927ZM62.1048 19.0586L62.4626 19.9924L62.4694 19.9898L62.4762 19.987L62.1048 19.0586ZM63.9044 18.421L64.2003 19.3762L64.2744 19.3533L64.3441 19.3192L63.9044 18.421ZM64.8866 17.9402L65.3262 18.8384L65.3488 18.8274L65.3707 18.8152L64.8866 17.9402ZM66.0332 16.9787L66.7774 17.6467L66.7776 17.6464L66.0332 16.9787ZM67.0153 15.5389L67.9046 15.9964L67.9091 15.9875L67.0153 15.5389ZM67.4524 13.6724L66.4524 13.6724L66.4524 13.6776L67.4524 13.6724ZM67.4524 11.9627L66.4524 11.9563V11.9627H67.4524ZM67.0667 10.145L66.1188 10.4635L66.1348 10.5112L66.1555 10.557L67.0667 10.145ZM65.8147 8.38393L65.1487 9.12993L65.1505 9.13152L65.8147 8.38393ZM63.416 7.09845L63.73 6.14899L63.7225 6.14657L63.416 7.09845ZM53.4894 8.43535L52.7427 7.77021L52.738 7.77556L52.7333 7.78098L53.4894 8.43535ZM51.9109 12.3329L50.9135 12.2608L50.9109 12.2968V12.3329H51.9109ZM51.3093 12.8677V11.8677H51.3011L51.293 11.8678L51.3093 12.8677ZM44.6582 12.9757L44.6625 13.9757L44.6744 13.9756L44.6582 12.9757ZM44.0566 12.3844L43.0565 12.3844L43.0566 12.3972L44.0566 12.3844ZM44.9307 6.62025L44.0188 6.20988L44.0184 6.21069L44.9307 6.62025ZM47.7125 3.20086L47.1052 2.40636L47.1024 2.40854L47.7125 3.20086ZM52.5665 0.907552L52.8295 1.87235L52.8577 1.86466L52.8854 1.85534L52.5665 0.907552ZM66.4078 23.4987C66.3876 23.6278 66.3385 23.7508 66.2641 23.8582L67.9085 24.9967C68.1546 24.6411 68.3171 24.2345 68.3839 23.8072L66.4078 23.4987ZM66.2641 23.8582C66.1897 23.9657 66.0919 24.055 65.9781 24.1193L66.9624 25.8603C67.3389 25.6475 67.6623 25.3522 67.9085 24.9967L66.2641 23.8582ZM65.9277 24.1498C65.5364 24.4025 65.1976 24.5302 64.765 24.688L65.4503 26.5669C65.8919 26.4059 66.4169 26.2147 67.0128 25.8299L65.9277 24.1498ZM64.7813 24.6822C63.8712 24.9964 62.8652 25.3269 61.8228 25.702L62.4999 27.5839C63.5297 27.2134 64.4827 26.9012 65.434 26.5727L64.7813 24.6822ZM61.8384 25.6965C60.6939 26.087 59.7808 26.4372 58.9199 26.703L59.5101 28.614C60.3975 28.3399 61.4434 27.9445 62.4842 27.5894L61.8384 25.6965ZM58.8914 26.7123C57.8397 27.072 56.7533 27.4104 55.7501 27.7902L56.4582 29.6607C57.4243 29.2949 58.4101 28.9906 59.5386 28.6047L58.8914 26.7123ZM55.7107 27.8061C54.8892 28.1576 54.1175 28.6158 53.4156 29.1689L54.6534 30.7398C55.2174 30.2954 55.8374 29.9273 56.4975 29.6448L55.7107 27.8061ZM53.3631 29.2133C52.7075 29.8072 52.1354 30.4872 51.6623 31.2347L53.3523 32.3042C53.7288 31.7093 54.1842 31.1681 54.7059 30.6954L53.3631 29.2133ZM51.6446 31.2637C51.1106 32.1747 50.7952 33.3132 50.7952 34.5975H52.7952C52.7952 33.6399 53.0299 32.8554 53.37 32.2752L51.6446 31.2637ZM50.7952 34.5975C50.7952 36.9764 51.37 38.9994 52.7342 40.3315L54.1315 38.9006C53.3104 38.0988 52.7952 36.7076 52.7952 34.5975H50.7952ZM52.7152 40.3124C54.1091 41.7491 56.5036 42.2718 59.5389 42.2718V40.2718C56.5839 40.2718 54.9368 39.73 54.1506 38.9197L52.7152 40.3124ZM59.5389 42.2718C62.6456 42.2718 65.0955 41.6909 66.4922 40.1925L65.0292 38.8288C64.2354 39.6803 62.5409 40.2718 59.5389 40.2718V42.2718ZM66.4946 40.1899C67.8032 38.7761 68.3932 36.8496 68.3932 34.5487H66.3932C66.3932 36.5156 65.8932 37.8953 65.0268 38.8314L66.4946 40.1899ZM68.3932 34.5487V23.6529H66.3932V34.5487H68.3932ZM67.3932 24.6529H67.3958V22.6529H67.3932V24.6529ZM59.5415 1C64.7998 1 68.4417 2.00546 70.6827 3.86721L71.9607 2.32883C69.1883 0.0256058 64.9784 -1 59.5415 -1V1ZM70.6925 3.8753C72.9745 5.72238 74.0856 8.05219 74.0856 10.8366H76.0856C76.0856 7.43019 74.6874 4.53578 71.9508 2.32074L70.6925 3.8753ZM74.0856 10.8366V37.2148H76.0856V10.8366H74.0856ZM74.0856 37.2148C74.0856 38.1525 73.8948 39.2264 73.5306 40.4521L75.4477 41.0219C75.8444 39.6869 76.0856 38.411 76.0856 37.2148H74.0856ZM73.5313 40.4497C73.2054 41.536 72.5575 42.5544 71.4785 43.5109L72.8052 45.0075C74.1275 43.8353 75.0016 42.509 75.4469 41.0244L73.5313 40.4497ZM71.458 43.5295C70.442 44.4817 68.9947 45.3265 67.0731 45.9874L67.7236 47.8787C69.8384 47.1513 71.5535 46.181 72.8256 44.9889L71.458 43.5295ZM67.0731 45.9874C65.1934 46.6339 62.6949 47 59.5441 47V49C62.831 49 65.5669 48.6205 67.7236 47.8787L67.0731 45.9874ZM59.5441 47C56.3982 47 53.8947 46.6339 52.018 45.9875L51.3667 47.8785C53.5212 48.6205 56.2625 49 59.5441 49V47ZM52.018 45.9875C50.0982 45.3264 48.6486 44.4815 47.6327 43.5295L46.2651 44.9889C47.5374 46.1812 49.2552 47.1513 51.3667 47.8785L52.018 45.9875ZM47.6183 43.5164C46.6785 42.6694 45.9665 41.5999 45.5478 40.406L43.6605 41.068C44.1901 42.578 45.0907 43.9308 46.2795 45.0021L47.6183 43.5164ZM45.5615 40.4481C45.1927 39.2261 45 38.1534 45 37.2174H43C43 38.4152 43.2443 39.6924 43.6468 41.0259L45.5615 40.4481ZM45 37.2174V33.001H43V37.2174H45ZM45 33.001C45 30.9409 45.5476 29.0523 46.6341 27.4075L44.9653 26.3052C43.6504 28.2958 43 30.5721 43 33.001H45ZM46.6407 27.3973C47.7108 25.7338 49.2151 24.5817 51.2171 23.846L50.5273 21.9687C48.1638 22.8373 46.2899 24.2458 44.9587 26.3154L46.6407 27.3973ZM51.1958 23.8535C51.7289 23.6712 52.3041 23.4883 52.9342 23.2874C53.5609 23.0876 54.2368 22.8717 54.9549 22.6279L54.3121 20.734C53.6137 20.9711 52.954 21.1819 52.3267 21.3819C51.7027 21.5808 51.1056 21.7707 50.5486 21.9611L51.1958 23.8535ZM54.9559 22.6276C56.4114 22.1319 57.6706 21.667 58.9778 21.2441L58.3621 19.3412C57.0469 19.7667 55.6941 20.2634 54.3111 20.7344L54.9559 22.6276ZM58.9811 21.243C60.3159 20.806 61.478 20.3697 62.4626 19.9924L61.7469 18.1248C60.7724 18.4982 59.6464 18.9207 58.3588 19.3423L58.9811 21.243ZM62.4762 19.987C63.0425 19.7605 63.6177 19.5567 64.2003 19.3762L63.6086 17.4658C62.9748 17.6621 62.3492 17.8837 61.7333 18.1302L62.4762 19.987ZM64.3441 19.3192L65.3262 18.8384L64.4469 17.0421L63.4648 17.5228L64.3441 19.3192ZM65.3707 18.8152C65.8835 18.5314 66.3463 18.1269 66.7774 17.6467L65.289 16.3107C64.9539 16.684 64.6609 16.9222 64.4024 17.0652L65.3707 18.8152ZM66.7776 17.6464C67.2196 17.1537 67.5935 16.601 67.9046 15.9964L66.1261 15.0815C65.8869 15.5464 65.6078 15.9553 65.2888 16.311L66.7776 17.6464ZM67.9091 15.9875C68.2704 15.2677 68.4565 14.4727 68.4524 13.6673L66.4524 13.6776C66.4549 14.168 66.3416 14.652 66.1216 15.0903L67.9091 15.9875ZM68.4524 13.6724V11.9627H66.4524V13.6724H68.4524ZM68.4524 11.9691C68.4573 11.1983 68.2955 10.4355 67.978 9.73313L66.1555 10.557C66.3542 10.9965 66.4555 11.4739 66.4524 11.9563L68.4524 11.9691ZM68.0147 9.82654C67.7271 8.97069 67.1645 8.24552 66.4788 7.63634L65.1505 9.13152C65.6629 9.58672 65.9745 10.0339 66.1188 10.4635L68.0147 9.82654ZM66.4806 7.63794C65.7467 6.98277 64.7901 6.49963 63.7299 6.14902L63.102 8.04787C64.0009 8.34514 64.6846 8.71557 65.1487 9.12992L66.4806 7.63794ZM63.7225 6.14657C62.6063 5.78718 61.1872 5.62025 59.6521 5.62025V7.62025C61.0683 7.62025 62.2614 7.77725 63.1095 8.05032L63.7225 6.14657ZM59.6521 5.62025C56.5397 5.62025 54.134 6.20834 52.7427 7.77021L54.2362 9.10049C55.0251 8.21481 56.6558 7.62025 59.6521 7.62025V5.62025ZM52.7333 7.78098C51.6601 9.02106 51.0363 10.5623 50.9135 12.2608L52.9083 12.405C53.0014 11.1162 53.4677 9.98869 54.2456 9.08973L52.7333 7.78098ZM50.9109 12.3329C50.9109 12.1891 50.9801 12.0494 51.0832 11.9611C51.1748 11.8827 51.2626 11.8677 51.3093 11.8677V13.8677C52.039 13.8677 52.9109 13.3469 52.9109 12.3329H50.9109ZM51.293 11.8678L44.6419 11.9758L44.6744 13.9756L51.3255 13.8676L51.293 11.8678ZM44.6538 11.9757C44.7595 11.9752 44.8612 12.0166 44.9366 12.0907L43.5346 13.517C43.8354 13.8127 44.2408 13.9775 44.6625 13.9757L44.6538 11.9757ZM44.9366 12.0907C45.012 12.1648 45.0551 12.2658 45.0565 12.3715L43.0566 12.3972C43.0621 12.8189 43.2339 13.2214 43.5346 13.517L44.9366 12.0907ZM45.0566 12.3844V10.8418H43.0566V12.3844H45.0566ZM45.0566 10.8418C45.0566 9.47166 45.3066 8.22447 45.843 7.02981L44.0184 6.21069C43.3567 7.68469 43.0566 9.21414 43.0566 10.8418H45.0566ZM45.8426 7.03061C46.3675 5.8641 47.1823 4.87119 48.3226 3.99318L47.1024 2.40854C45.7385 3.45875 44.6971 4.70258 44.0188 6.20988L45.8426 7.03061ZM48.3197 3.99535C49.4564 3.12658 50.9724 2.37859 52.8295 1.87235L52.3035 -0.0572409C50.2372 0.506036 48.4778 1.35719 47.1052 2.40636L48.3197 3.99535ZM52.8854 1.85534C54.6506 1.26139 56.8739 1 59.5466 1V-1C56.769 -1 54.3028 -0.731766 52.2476 -0.0402345L52.8854 1.85534ZM59.5466 -1H59.5415V1H59.5466V-1Z" fill="black" fill-opacity="0.2" mask="url(#path-1-inside-1_49_476)"/>
</svg>
